# xmcd
#
# Track frame offsets: 
#        150
#        3043
#        27649
#        54557
#        73090
#        96871
#        115163
#        144175
#        157847
#        185366
#        191660
#        210909
#        239573
#        268411
#
# Disc length: 3631 seconds
#
# Revision: 0
# Processed by: cddbd v1.5.2PL0 Copyright (c) Steve Scherf et al.
# Submitted via: ExactAudioCopy v1.3
#
DISCID=bf0e2d0e
DTITLE=Various Artist - Blind Nello Christmas Party
DYEAR=2016
DGENRE=Texas Country
TTITLE0=Unknown Artist - Introduction
TTITLE1=Houston Marchman - Hey Senorita
TTITLE2=Mark David Manders - Three Day Weekend
TTITLE3=Kevin Deal - Live Forever
TTITLE4=Max Stallings - Tailgate Story
TTITLE5=Max Stallings - Ping Pong, Pool
TTITLE6=Houston Marchman - Who Need's Drugs when you have Tourette's
TTITLE7=Mark David Manders - Rambling Story
TTITLE8=Mark David Manders - Telephone Song
TTITLE9=Kevin Deal - Curly "Barefoot" Miller Story
TTITLE10=Kevin Deal - One Good Ride
TTITLE11=Max Stallings - Freedom from Mary
TTITLE12=Houston Marchman - I Like to Listen to Hank
TTITLE13=Unknown Artist - Piano Instrumental
EXTD=
EXTT0=
EXTT1=
EXTT2=
EXTT3=
EXTT4=
EXTT5=
EXTT6=
EXTT7=
EXTT8=
EXTT9=
EXTT10=
EXTT11=
EXTT12=
EXTT13=
PLAYORDER=
